<svg xmlns="http://www.w3.org/2000/svg" viewBox="0 0 1400 512" width="1400" height="512">
  <!-- OMERTÀ — horizontal lockup: mark + wordmark. -->
  <rect width="1400" height="512" fill="#05070c"/>
  <circle cx="256" cy="256" r="244" fill="none" stroke="#35f2ff" stroke-width="3"/>
  <circle cx="256" cy="256" r="230" fill="none" stroke="#35f2ff" stroke-width="1" opacity="0.3"/>

    <!-- hook + stem: the rose hangs by its stem from one ring -->
    <circle cx="256" cy="46" r="8" fill="none" stroke="#9aa4b2" stroke-width="3"/>
    <path d="M256 54 C 247 100, 266 150, 256 196" fill="none" stroke="#1f7a55" stroke-width="7" stroke-linecap="round"/>
    <path d="M252 96 L 236 88 L 253 108 Z" fill="#1f7a55"/>
    <path d="M261 146 L 277 138 L 260 158 Z" fill="#1f7a55"/>
    <path d="M259 120 C 304 96, 342 122, 328 168 C 296 168, 270 150, 259 120 Z" fill="#2fa36f" stroke="#3a0a22" stroke-width="2"/>
    <path d="M264 124 C 290 136, 310 150, 324 164" fill="none" stroke="#3a0a22" stroke-width="2" stroke-linecap="round"/>
    <path d="M256 202 L 226 182 L 246 212 Z M256 202 L 286 182 L 266 212 Z M256 202 L 256 172 L 261 212 Z" fill="#2fa36f" stroke="#3a0a22" stroke-width="1.5"/>
    <!-- bloom: outer petals flare open below the calyx; the face of the rose, seen from beneath, rolls into its centre -->
    <g stroke="#3a0a22" stroke-width="2.5" stroke-linejoin="round">
      <path d="M 256 208 C 200 220 154 300 166 372 C 160 386 152 392 152 396 C 176 388 200 380 224 356 C 236 320 240 262 256 208 Z" fill="#8a1252"/>
      <path d="M 256 208 C 312 220 358 300 346 372 C 352 386 360 392 360 396 C 336 388 312 380 288 356 C 276 320 272 262 256 208 Z" fill="#8a1252"/>
      <path d="M 256 212 C 216 236 194 320 206 392 C 200 404 196 410 196 414 C 216 402 236 386 250 356 C 250 320 248 264 256 212 Z" fill="#c2185b"/>
      <path d="M 256 212 C 296 236 318 320 306 392 C 312 404 316 410 316 414 C 296 402 276 386 262 356 C 262 320 264 264 256 212 Z" fill="#c2185b"/>
      <path d="M 256 214 C 232 250 226 332 256 396 C 286 332 280 250 256 214 Z" fill="#ff3ec9"/>
      <!-- rolled face: nested off-centre discs read as petals wrapping the core -->
      <circle cx="256" cy="330" r="64" fill="#c2185b"/>
      <circle cx="262" cy="334" r="47" fill="#ff3ec9"/>
      <circle cx="252" cy="338" r="31" fill="#c2185b"/>
      <circle cx="257" cy="330" r="18" fill="#ff8fdc"/>
      <circle cx="255" cy="330" r="6" fill="#8a1252"/>
      <path d="M 316.0 330.0 L 315.4 334.9 L 314.4 339.8 L 313.0 344.5 L 311.2 349.1 L 309.1 353.4 L 306.6 357.5 L 303.8 361.4 L 300.8 365.0 L 297.4 368.4 L 293.8 371.4 L 290.0 374.1 L 286.0 376.4 L 281.9 378.4 L 277.6 380.0 L 273.3 381.3 L 268.9 382.1 L 264.5 382.6 L 260.0 382.8 L 255.6 382.5 L 251.3 381.9 L 247.1 381.0 L 243.0 379.7 L 239.1 378.1 L 235.3 376.1 L 231.7 373.9 L 228.4 371.4 L 225.3 368.7 L 222.5 365.7 L 219.9 362.6 L 217.6 359.2 L 215.7 355.7 L 214.0 352.1 L 212.7 348.4 L 211.7 344.6 L 211.0 340.8 L 210.7 337.0 L 210.6 333.2 L 210.9 329.4 L 211.5 325.7 L 212.4 322.1 L 213.6 318.6 L 215.1 315.3 L 216.8 312.1 L 218.8 309.1 L 220.9 306.3 L 223.3 303.7 L 225.9 301.4 L 228.7 299.3 L 231.5 297.4 L 234.5 295.8 L 237.6 294.5 L 240.8 293.5 L 244.0 292.7 L 247.2 292.2 L 250.4 292.0 L 253.6 292.1 L 256.8 292.4 L 259.8 293.0 L 262.8 293.8 L 265.7 294.9 L 268.4 296.2 L 271.0 297.7 L 273.5 299.4 L 275.7 301.3 L 277.8 303.3 L 279.7 305.5 L 281.3 307.8 L 282.8 310.2 L 284.0 312.7 L 285.0 315.2 L 285.7 317.8 L 286.2 320.5 L 286.6 323.1 L 286.6 325.7 L 286.5 328.3 L 286.1 330.8 L 285.6 333.3 L 284.8 335.6 L 283.9 337.9 L 282.7 340.0 L 281.5 342.1 L 280.0 343.9 L 278.5 345.7 L 276.8 347.2 L 275.0 348.6 L 273.2 349.8 L 271.2 350.9 L 269.2 351.7 L 267.2 352.4 L 265.2 352.9 L 263.1 353.2 L 261.1 353.3 L 259.1 353.3 L 257.1 353.0 L 255.2 352.7 L 253.4 352.1 L 251.7 351.5 L 250.0 350.6 L 248.5 349.7 L 247.0 348.7 L 245.7 347.5 L 244.5 346.3 L 243.4 345.0 L 242.5 343.6 L 241.7 342.2 L 241.1 340.7 L 240.6 339.2 L 240.2 337.8 L 240.0 336.3 L 239.9 334.8 L 240.0 333.4 L 240.1 332.0 L 240.4 330.7 L 240.8 329.4 L 241.3 328.2 L 241.9 327.0 L 242.5 326.0 L 243.3 325.0 L 244.1 324.2 L 245.0 323.4 L 245.9 322.7 L 246.8 322.2 L 247.8 321.7 L 248.7 321.4 L 249.7 321.1 L 250.7 321.0 L 251.6 320.9 L 252.5 320.9 L 253.4 321.1 L 254.2 321.3 L 255.0 321.5 L 255.7 321.9 L 256.4 322.3 L 257.0 322.7 L 257.5 323.2 L 257.9 323.7 L 258.3 324.3 L 258.6 324.8 L 258.8 325.4 L 258.9 326.0" fill="none" stroke-width="2.2" stroke-linecap="round"/>
    </g>
    <path d="M 214 250 C 196 300 194 348 210 386" fill="none" stroke="#ff9ad9" stroke-width="1.6" stroke-linecap="round" opacity="0.5"/>
    <path d="M 298 250 C 316 300 318 348 302 386" fill="none" stroke="#ff9ad9" stroke-width="1.6" stroke-linecap="round" opacity="0.5"/>
    <!-- one drop -->
    <path d="M256 410 C 249 422, 249 432, 256 436 C 263 432, 263 422, 256 410 Z" fill="#ff3ec9" stroke="#3a0a22" stroke-width="1.5"/>
  <text x="580" y="300" font-family="'Courier New', Menlo, Consolas, monospace" font-size="190" font-weight="bold" fill="#35f2ff" letter-spacing="18">OMERTÀ</text>
  <line x1="586" y1="326" x2="1350" y2="326" stroke="#35f2ff" stroke-width="1" opacity="0.4"/>
  <text x="588" y="366" font-family="'Courier New', Menlo, Consolas, monospace" font-size="30" fill="#ff3ec9" letter-spacing="14">SILENCE IS THE COLLATERAL</text>
</svg>
